<?xml version="1.0" encoding="UTF-8" standalone="no"?>
<svg
   xmlns:dc="http://purl.org/dc/elements/1.1/"
   xmlns:cc="http://creativecommons.org/ns#"
   xmlns:rdf="http://www.w3.org/1999/02/22-rdf-syntax-ns#"
   xmlns:svg="http://www.w3.org/2000/svg"
   xmlns="http://www.w3.org/2000/svg"
   xmlns:sodipodi="http://sodipodi.sourceforge.net/DTD/sodipodi-0.dtd"
   xmlns:inkscape="http://www.inkscape.org/namespaces/inkscape"
   version="1.1"
   viewBox="0 0 541.39337 636.42614"
   stroke-miterlimit="10"
   id="svg3821"
   inkscape:version="0.48.3.1 r9886"
   width="100%"
   height="100%"
   sodipodi:docname="FileStorage.svg"
   style="fill:none;stroke:none">
  <metadata
     id="metadata3940">
    <rdf:RDF>
      <cc:Work
         rdf:about="">
        <dc:format>image/svg+xml</dc:format>
        <dc:type
           rdf:resource="http://purl.org/dc/dcmitype/StillImage" />
      </cc:Work>
    </rdf:RDF>
  </metadata>
  <defs
     id="defs3938" />
  <sodipodi:namedview
     pagecolor="#ffffff"
     bordercolor="#666666"
     borderopacity="1"
     objecttolerance="10"
     gridtolerance="10"
     guidetolerance="10"
     inkscape:pageopacity="0"
     inkscape:pageshadow="2"
     inkscape:window-width="640"
     inkscape:window-height="480"
     id="namedview3936"
     showgrid="false"
     fit-margin-top="0"
     fit-margin-left="0"
     fit-margin-right="0"
     fit-margin-bottom="0"
     inkscape:zoom="0.32777778"
     inkscape:cx="398.96318"
     inkscape:cy="309.49603"
     inkscape:window-x="49"
     inkscape:window-y="24"
     inkscape:window-maximized="0"
     inkscape:current-layer="svg3821" />
  <clipPath
     id="p.0">
    <path
       d="M 0,0 960,0 960,720 0,720 0,0 z"
       clip-rule="nonzero"
       id="path3824"
       inkscape:connector-curvature="0" />
  </clipPath>
  <g
     clip-path="url(#p.0)"
     id="g3826"
     transform="translate(-81.036819,-33.069896)">
    <path
       d="m 82.03682,145.65703 0,0 c 0,-13.7419 11.139999,-24.8819 24.88189,-24.8819 l 0,0 c 6.59908,0 12.9279,2.62149 17.59415,7.28774 4.66626,4.66626 7.28774,10.99507 7.28774,17.59416 l 0,0 c 0,13.74188 -11.14,24.88188 -24.88189,24.88188 l 0,0 c -13.741891,0 -24.881891,-11.14 -24.881891,-24.88188 z"
       id="path3828"
       inkscape:connector-curvature="0"
       style="stroke:#000000;stroke-width:2;stroke-linecap:butt;stroke-linejoin:round" />
    <path
       d="m 133.0399,58.951786 0,0 c 0,-13.74189 11.14,-24.881893 24.88188,-24.881893 l 0,0 c 6.59909,0 12.9279,2.621479 17.59416,7.287739 4.66626,4.66626 7.28774,10.995064 7.28774,17.594154 l 0,0 c 0,13.741886 -11.14,24.881886 -24.8819,24.881886 l 0,0 c -13.74188,0 -24.88188,-11.139999 -24.88188,-24.881886 z"
       id="path3830"
       inkscape:connector-curvature="0"
       style="stroke:#000000;stroke-width:2;stroke-linecap:butt;stroke-linejoin:round;stroke-dasharray:8, 6" />
    <path
       d="m 209.54453,58.951786 0,0 c 0,-13.74189 11.14,-24.881893 24.88188,-24.881893 l 0,0 c 6.59909,0 12.9279,2.621479 17.59416,7.287739 4.66626,4.66626 7.28772,10.995064 7.28772,17.594154 l 0,0 c 0,13.741886 -11.13998,24.881886 -24.88188,24.881886 l 0,0 c -13.74188,0 -24.88188,-11.139999 -24.88188,-24.881886 z"
       id="path3832"
       inkscape:connector-curvature="0"
       style="stroke:#000000;stroke-width:2;stroke-linecap:butt;stroke-linejoin:round;stroke-dasharray:8, 6" />
    <path
       d="M 124.51286,128.06287 150.689,93.408993"
       id="path3834"
       inkscape:connector-curvature="0"
       style="stroke:#000000;stroke-width:2;stroke-linecap:butt;stroke-linejoin:round" />
    <path
       d="m 153.32497,95.40009 2.83455,-9.233391 -8.10649,5.251175 z"
       id="path3836"
       inkscape:connector-curvature="0"
       style="fill:#000000;fill-rule:evenodd;stroke:#000000;stroke-width:2;stroke-linecap:butt" />
    <path
       d="M 131.8006,145.65701 207.52011,84.114552"
       id="path3838"
       inkscape:connector-curvature="0"
       style="stroke:#000000;stroke-width:2;stroke-linecap:butt;stroke-linejoin:round" />
    <path
       d="m 209.60368,86.678085 4.95967,-8.288048 -9.12678,3.160988 z"
       id="path3840"
       inkscape:connector-curvature="0"
       style="fill:#000000;fill-rule:evenodd;stroke:#000000;stroke-width:2;stroke-linecap:butt" />
    <path
       d="m 351.0881,210.696 0,0 c 0,-13.7419 11.14001,-24.8819 24.8819,-24.8819 l 0,0 c 6.59909,0 12.92788,2.62148 17.59414,7.28774 4.66626,4.66626 7.28775,10.99507 7.28775,17.59416 l 0,0 c 0,13.74188 -11.14001,24.88188 -24.88189,24.88188 l 0,0 c -13.74188,0 -24.8819,-11.14 -24.8819,-24.88188 z"
       id="path3842"
       inkscape:connector-curvature="0"
       style="stroke:#000000;stroke-width:2;stroke-linecap:butt;stroke-linejoin:round" />
    <path
       d="m 301.35007,123.99075 0,0 c 0,-13.74189 11.14002,-24.88189 24.8819,-24.88189 l 0,0 c 6.59909,0 12.92788,2.62148 17.59414,7.28774 4.66626,4.66626 7.28775,10.99506 7.28775,17.59415 l 0,0 c 0,13.74188 -11.14001,24.8819 -24.88189,24.8819 l 0,0 c -13.74188,0 -24.8819,-11.14002 -24.8819,-24.8819 z"
       id="path3844"
       inkscape:connector-curvature="0"
       style="stroke:#000000;stroke-width:2;stroke-linecap:butt;stroke-linejoin:round;stroke-dasharray:8, 6" />
    <path
       d="m 377.8547,123.99075 0,0 c 0,-13.74189 11.13998,-24.88189 24.88187,-24.88189 l 0,0 c 6.59909,0 12.92791,2.62148 17.59417,7.28774 4.66626,4.66626 7.28772,10.99506 7.28772,17.59415 l 0,0 c 0,13.74188 -11.13998,24.8819 -24.88189,24.8819 l 0,0 c -13.74189,0 -24.88187,-11.14002 -24.88187,-24.8819 z"
       id="path3846"
       inkscape:connector-curvature="0"
       style="stroke:#000000;stroke-width:2;stroke-linecap:butt;stroke-linejoin:round;stroke-dasharray:8, 6" />
    <path
       d="M 358.37585,193.10185 333.28674,158.57986"
       id="path3848"
       inkscape:connector-curvature="0"
       style="stroke:#000000;stroke-width:2;stroke-linecap:butt;stroke-linejoin:round" />
    <path
       d="m 335.959,156.63776 -8.00815,-5.39995 2.66361,9.28415 z"
       id="path3850"
       inkscape:connector-curvature="0"
       style="fill:#000000;fill-rule:evenodd;stroke:#000000;stroke-width:2;stroke-linecap:butt" />
    <path
       d="m 393.56415,193.10185 6.73569,-32.47922"
       id="path3852"
       inkscape:connector-curvature="0"
       style="stroke:#000000;stroke-width:2;stroke-linecap:butt;stroke-linejoin:round" />
    <path
       d="m 403.53445,161.29344 -1.39157,-9.55791 -5.0777,8.21628 z"
       id="path3854"
       inkscape:connector-curvature="0"
       style="fill:#000000;fill-rule:evenodd;stroke:#000000;stroke-width:2;stroke-linecap:butt" />
    <path
       d="m 519.3983,191.5598 0,0 c 0,-13.74188 11.13995,-24.8819 24.88184,-24.8819 l 0,0 c 6.59912,0 12.92791,2.62149 17.59417,7.28774 4.66626,4.66626 7.28772,10.99507 7.28772,17.59416 l 0,0 c 0,13.74188 -11.13995,24.88188 -24.88189,24.88188 l 0,0 c -13.74189,0 -24.88184,-11.14 -24.88184,-24.88188 z"
       id="path3856"
       inkscape:connector-curvature="0"
       style="stroke:#000000;stroke-width:2;stroke-linecap:butt;stroke-linejoin:round" />
    <path
       d="m 474.76056,89.553635 0,0 c 0,-13.74189 11.13998,-24.88189 24.88187,-24.88189 l 0,0 c 6.59909,0 12.92788,2.621475 17.59414,7.287735 4.66626,4.66626 7.28778,10.995064 7.28778,17.594154 l 0,0 c 0,13.741886 -11.14001,24.881886 -24.88192,24.881886 l 0,0 c -13.74188,0 -24.88187,-11.14 -24.88187,-24.881886 z"
       id="path3858"
       inkscape:connector-curvature="0"
       style="stroke:#000000;stroke-width:2;stroke-linecap:butt;stroke-linejoin:round;stroke-dasharray:8, 6" />
    <path
       d="m 571.6664,89.553635 0,0 c 0,-13.74189 11.14001,-24.88189 24.8819,-24.88189 l 0,0 c 6.59912,0 12.92791,2.621475 17.59417,7.287735 4.66626,4.66626 7.28772,10.995064 7.28772,17.594154 l 0,0 c 0,13.741886 -11.14001,24.881886 -24.88189,24.881886 l 0,0 c -13.74189,0 -24.8819,-11.14 -24.8819,-24.881886 z"
       id="path3860"
       inkscape:connector-curvature="0"
       style="stroke:#000000;stroke-width:2;stroke-linecap:butt;stroke-linejoin:round;stroke-dasharray:8, 6" />
    <path
       d="M 526.68604,173.96565 504.60569,125.36099"
       id="path3862"
       inkscape:connector-curvature="0"
       style="stroke:#000000;stroke-width:2;stroke-linecap:butt;stroke-linejoin:round" />
    <path
       d="m 507.61337,123.99466 -6.76163,-6.89714 0.74631,9.62981 z"
       id="path3864"
       inkscape:connector-curvature="0"
       style="fill:#000000;fill-rule:evenodd;stroke:#000000;stroke-width:2;stroke-linecap:butt" />
    <path
       d="M 561.8743,173.96565 590.50858,124.8048"
       id="path3866"
       inkscape:connector-curvature="0"
       style="stroke:#000000;stroke-width:2;stroke-linecap:butt;stroke-linejoin:round" />
    <path
       d="m 593.36316,126.46747 1.71356,-9.50547 -7.42267,6.18015 z"
       id="path3868"
       inkscape:connector-curvature="0"
       style="fill:#000000;fill-rule:evenodd;stroke:#000000;stroke-width:2;stroke-linecap:butt" />
    <path
       d="m 182.77794,329.26813 0,0 c 0,-13.74188 11.14001,-24.8819 24.8819,-24.8819 l 0,0 c 6.59909,0 12.92788,2.62149 17.59414,7.28775 4.66626,4.66626 7.28774,10.99506 7.28774,17.59415 l 0,0 c 0,13.74188 -11.14,24.8819 -24.88188,24.8819 l 0,0 c -13.74189,0 -24.8819,-11.14002 -24.8819,-24.8819 z"
       id="path3870"
       inkscape:connector-curvature="0"
       style="stroke:#000000;stroke-width:2;stroke-linecap:butt;stroke-linejoin:round" />
    <path
       d="m 138.14021,227.26195 0,0 c 0,-13.74188 11.14,-24.88188 24.88188,-24.88188 l 0,0 c 6.59909,0 12.9279,2.62147 17.59416,7.28773 4.66626,4.66626 7.28774,10.99507 7.28774,17.59415 l 0,0 c 0,13.7419 -11.14,24.8819 -24.8819,24.8819 l 0,0 c -13.74188,0 -24.88188,-11.14 -24.88188,-24.8819 z"
       id="path3872"
       inkscape:connector-curvature="0"
       style="stroke:#000000;stroke-width:2;stroke-linecap:butt;stroke-linejoin:round;stroke-dasharray:8, 6" />
    <path
       d="m 219.74513,227.26195 0,0 c 0,-13.74188 11.14001,-24.88188 24.8819,-24.88188 l 0,0 c 6.59909,0 12.9279,2.62147 17.59416,7.28773 4.66626,4.66626 7.28772,10.99507 7.28772,17.59415 l 0,0 c 0,13.7419 -11.13999,24.8819 -24.88188,24.8819 l 0,0 c -13.74189,0 -24.8819,-11.14 -24.8819,-24.8819 z"
       id="path3874"
       inkscape:connector-curvature="0"
       style="stroke:#000000;stroke-width:2;stroke-linecap:butt;stroke-linejoin:round;stroke-dasharray:8, 6" />
    <path
       d="M 190.06567,311.67398 167.98536,263.0693"
       id="path3876"
       inkscape:connector-curvature="0"
       style="stroke:#000000;stroke-width:2;stroke-linecap:butt;stroke-linejoin:round" />
    <path
       d="m 170.99303,261.70297 -6.76163,-6.89713 0.74631,9.6298 z"
       id="path3878"
       inkscape:connector-curvature="0"
       style="fill:#000000;fill-rule:evenodd;stroke:#000000;stroke-width:2;stroke-linecap:butt" />
    <path
       d="m 225.25398,311.67398 15.65955,-48.1192"
       id="path3880"
       inkscape:connector-curvature="0"
       style="stroke:#000000;stroke-width:2;stroke-linecap:butt;stroke-linejoin:round" />
    <path
       d="m 244.05484,264.5771 -0.33261,-9.65295 -5.95001,7.60836 z"
       id="path3882"
       inkscape:connector-curvature="0"
       style="fill:#000000;fill-rule:evenodd;stroke:#000000;stroke-width:2;stroke-linecap:butt" />
    <path
       d="m 82.03682,487.30185 72.56692,0 0,42.4252 -72.56692,0 z"
       id="path3884"
       inkscape:connector-curvature="0"
       style="fill:#bebebe;fill-rule:nonzero" />
    <path
       d="m 82.03682,487.30185 72.56692,0 0,42.4252 -72.56692,0 z"
       id="path3886"
       inkscape:connector-curvature="0"
       style="stroke:#000000;stroke-width:2;stroke-linecap:butt;stroke-linejoin:round" />
    <path
       d="m 104.93386,555.31757 72.56693,0 0,42.42523 -72.56693,0 z"
       id="path3888"
       inkscape:connector-curvature="0"
       style="fill:#bebebe;fill-rule:nonzero" />
    <path
       d="m 104.93386,555.31757 72.56693,0 0,42.42523 -72.56693,0 z"
       id="path3890"
       inkscape:connector-curvature="0"
       style="stroke:#000000;stroke-width:2;stroke-linecap:butt;stroke-linejoin:round" />
    <path
       d="m 209.54453,555.31757 72.56692,0 0,42.42523 -72.56692,0 z"
       id="path3892"
       inkscape:connector-curvature="0"
       style="fill:#bebebe;fill-rule:nonzero" />
    <path
       d="m 209.54453,555.31757 72.56692,0 0,42.42523 -72.56692,0 z"
       id="path3894"
       inkscape:connector-curvature="0"
       style="stroke:#000000;stroke-width:2;stroke-linecap:butt;stroke-linejoin:round" />
    <path
       d="m 104.93386,626.07086 72.56693,0 0,42.42517 -72.56693,0 z"
       id="path3896"
       inkscape:connector-curvature="0"
       style="fill:#bebebe;fill-rule:nonzero" />
    <path
       d="m 104.93386,626.07086 72.56693,0 0,42.42517 -72.56693,0 z"
       id="path3898"
       inkscape:connector-curvature="0"
       style="stroke:#000000;stroke-width:2;stroke-linecap:butt;stroke-linejoin:round" />
    <path
       d="m 314.23303,555.31757 72.56692,0 0,42.42523 -72.56692,0 z"
       id="path3900"
       inkscape:connector-curvature="0"
       style="fill:#bebebe;fill-rule:nonzero" />
    <path
       d="m 314.23303,555.31757 72.56692,0 0,42.42523 -72.56692,0 z"
       id="path3902"
       inkscape:connector-curvature="0"
       style="stroke:#000000;stroke-width:2;stroke-linecap:butt;stroke-linejoin:round" />
    <path
       d="m 351.0881,626.07086 72.56696,0 0,42.42517 -72.56696,0 z"
       id="path3904"
       inkscape:connector-curvature="0"
       style="fill:#bebebe;fill-rule:nonzero" />
    <path
       d="m 351.0881,626.07086 72.56696,0 0,42.42517 -72.56696,0 z"
       id="path3906"
       inkscape:connector-curvature="0"
       style="stroke:#000000;stroke-width:2;stroke-linecap:butt;stroke-linejoin:round" />
    <path
       d="m 446.83136,626.07086 72.56696,0 0,42.42517 -72.56696,0 z"
       id="path3908"
       inkscape:connector-curvature="0"
       style="fill:#bebebe;fill-rule:nonzero" />
    <path
       d="m 446.83136,626.07086 72.56696,0 0,42.42517 -72.56696,0 z"
       id="path3910"
       inkscape:connector-curvature="0"
       style="stroke:#000000;stroke-width:2;stroke-linecap:butt;stroke-linejoin:round" />
    <path
       d="m 123.20158,531.0971 18.01575,24.22046"
       id="path3912"
       inkscape:connector-curvature="0"
       style="stroke:#000000;stroke-width:2;stroke-linecap:butt;stroke-linejoin:round" />
    <path
       d="m 177.5008,576.5302 32.04373,0"
       id="path3914"
       inkscape:connector-curvature="0"
       style="stroke:#000000;stroke-width:2;stroke-linecap:butt;stroke-linejoin:round" />
    <path
       d="m 282.11145,576.5302 32.12158,0"
       id="path3916"
       inkscape:connector-curvature="0"
       style="stroke:#000000;stroke-width:2;stroke-linecap:butt;stroke-linejoin:round" />
    <path
       d="m 350.5165,597.7428 36.85507,28.32806"
       id="path3918"
       inkscape:connector-curvature="0"
       style="stroke:#000000;stroke-width:2;stroke-linecap:butt;stroke-linejoin:round" />
    <path
       d="m 446.83136,647.28345 0,0"
       id="path3920"
       inkscape:connector-curvature="0"
       style="stroke:#000000;stroke-width:2;stroke-linecap:butt;stroke-linejoin:round" />
    <path
       d="m 446.83136,647.28345 -23.1763,0"
       id="path3922"
       inkscape:connector-curvature="0"
       style="stroke:#000000;stroke-width:2;stroke-linecap:butt;stroke-linejoin:round" />
    <path
       d="m 141.21733,626.07086 0,0"
       id="path3924"
       inkscape:connector-curvature="0"
       style="stroke:#000000;stroke-width:2;stroke-linecap:butt;stroke-linejoin:round" />
    <path
       d="m 141.21733,597.7428 0,28.32806"
       id="path3926"
       inkscape:connector-curvature="0"
       style="stroke:#000000;stroke-width:2;stroke-linecap:butt;stroke-linejoin:round" />
    <path
       d="m 106.91871,170.53891 11.40157,316.76294"
       id="path3928"
       inkscape:connector-curvature="0"
       style="stroke:#999999;stroke-width:2;stroke-linecap:butt;stroke-linejoin:round" />
    <path
       d="M 245.82799,555.31757 207.65984,354.15003"
       id="path3930"
       inkscape:connector-curvature="0"
       style="stroke:#999999;stroke-width:2;stroke-linecap:butt;stroke-linejoin:round" />
    <path
       d="m 350.5165,555.31757 25.45349,-319.7397"
       id="path3932"
       inkscape:connector-curvature="0"
       style="stroke:#999999;stroke-width:2;stroke-linecap:butt;stroke-linejoin:round" />
    <path
       d="M 483.1148,626.07086 544.28014,216.44168"
       id="path3934"
       inkscape:connector-curvature="0"
       style="stroke:#999999;stroke-width:2;stroke-linecap:butt;stroke-linejoin:round" />
  </g>
</svg>
