<?xml version="1.0" encoding="UTF-8" standalone="no"?>
<svg
   xmlns:dc="http://purl.org/dc/elements/1.1/"
   xmlns:cc="http://creativecommons.org/ns#"
   xmlns:rdf="http://www.w3.org/1999/02/22-rdf-syntax-ns#"
   xmlns:svg="http://www.w3.org/2000/svg"
   xmlns="http://www.w3.org/2000/svg"
   xmlns:sodipodi="http://sodipodi.sourceforge.net/DTD/sodipodi-0.dtd"
   xmlns:inkscape="http://www.inkscape.org/namespaces/inkscape"
   version="1.1"
   viewBox="0 0 848.01575 504.01575"
   stroke-miterlimit="10"
   id="svg3752"
   inkscape:version="0.48.3.1 r9886"
   width="100%"
   height="100%"
   sodipodi:docname="ObjectStorage.svg"
   style="fill:none;stroke:none">
  <metadata
     id="metadata3819">
    <rdf:RDF>
      <cc:Work
         rdf:about="">
        <dc:format>image/svg+xml</dc:format>
        <dc:type
           rdf:resource="http://purl.org/dc/dcmitype/StillImage" />
      </cc:Work>
    </rdf:RDF>
  </metadata>
  <defs
     id="defs3817" />
  <sodipodi:namedview
     pagecolor="#ffffff"
     bordercolor="#666666"
     borderopacity="1"
     objecttolerance="10"
     gridtolerance="10"
     guidetolerance="10"
     inkscape:pageopacity="0"
     inkscape:pageshadow="2"
     inkscape:window-width="640"
     inkscape:window-height="480"
     id="namedview3815"
     showgrid="false"
     fit-margin-top="0"
     fit-margin-left="0"
     fit-margin-right="0"
     fit-margin-bottom="0"
     inkscape:zoom="0.32777778"
     inkscape:cx="399.01575"
     inkscape:cy="177"
     inkscape:window-x="49"
     inkscape:window-y="24"
     inkscape:window-maximized="0"
     inkscape:current-layer="svg3752" />
  <clipPath
     id="p.0">
    <path
       d="M 0,0 960,0 960,720 0,720 0,0 z"
       clip-rule="nonzero"
       id="path3755"
       inkscape:connector-curvature="0" />
  </clipPath>
  <g
     clip-path="url(#p.0)"
     id="g3757"
     transform="translate(-80.984249,-32.984256)">
    <path
       d="m 81.98425,208.99213 0,0 c 0,-21.54346 17.464417,-39.00787 39.00787,-39.00787 l 0,0 c 10.34554,0 20.26734,4.10974 27.58274,11.42514 C 155.89026,188.7248 160,198.64659 160,208.99213 l 0,0 C 160,230.53559 142.53558,248 120.99212,248 l 0,0 C 99.448666,248 81.984249,230.53559 81.984249,208.99213 z"
       id="path3759"
       inkscape:connector-curvature="0"
       style="stroke:#000000;stroke-width:2;stroke-linecap:butt;stroke-linejoin:round" />
    <path
       d="m 161.98425,72.99213 0,0 c 0,-21.543453 17.46442,-39.007874 39.00787,-39.007874 l 0,0 c 10.34554,0 20.26734,4.109745 27.58274,11.42514 C 235.89026,52.724791 240,62.646598 240,72.992129 l 0,0 C 240,94.535586 222.53558,112 200.99212,112 l 0,0 c -21.54345,0 -39.00787,-17.464414 -39.00787,-39.007871 z"
       id="path3761"
       inkscape:connector-curvature="0"
       style="stroke:#000000;stroke-width:2;stroke-linecap:butt;stroke-linejoin:round;stroke-dasharray:8, 6" />
    <path
       d="m 281.98425,72.99213 0,0 c 0,-21.543453 17.46442,-39.007874 39.00787,-39.007874 l 0,0 c 10.34552,0 20.26734,4.109745 27.58274,11.42514 C 355.89026,52.724791 360,62.646598 360,72.992129 l 0,0 C 360,94.535586 342.53558,112 320.99212,112 l 0,0 c -21.54345,0 -39.00787,-17.464414 -39.00787,-39.007871 z"
       id="path3763"
       inkscape:connector-curvature="0"
       style="stroke:#000000;stroke-width:2;stroke-linecap:butt;stroke-linejoin:round;stroke-dasharray:8, 6" />
    <path
       d="m 148.57486,181.4094 45.1855,-59.8333"
       id="path3765"
       inkscape:connector-curvature="0"
       style="stroke:#000000;stroke-width:2;stroke-linecap:butt;stroke-linejoin:round" />
    <path
       d="m 196.39655,123.56692 2.83356,-9.2337 -8.10594,5.25205 z"
       id="path3767"
       inkscape:connector-curvature="0"
       style="fill:#000000;fill-rule:evenodd;stroke:#000000;stroke-width:2;stroke-linecap:butt" />
    <path
       d="M 160,208.99213 284.09677,108.1429"
       id="path3769"
       inkscape:connector-curvature="0"
       style="stroke:#000000;stroke-width:2;stroke-linecap:butt;stroke-linejoin:round" />
    <path
       d="m 286.18018,110.70655 4.9602,-8.28774 -9.12701,3.16043 z"
       id="path3771"
       inkscape:connector-curvature="0"
       style="fill:#000000;fill-rule:evenodd;stroke:#000000;stroke-width:2;stroke-linecap:butt" />
    <path
       d="m 504,311.00787 0,0 C 504,289.46441 521.46442,272 543.00787,272 l 0,0 c 10.34552,0 20.26734,4.10974 27.58271,11.42514 7.31543,7.3154 11.42517,17.23721 11.42517,27.58273 l 0,0 c 0,21.54346 -17.46442,39.00787 -39.00788,39.00787 l 0,0 C 521.46442,350.01574 504,332.55133 504,311.00787 z"
       id="path3773"
       inkscape:connector-curvature="0"
       style="stroke:#000000;stroke-width:2;stroke-linecap:butt;stroke-linejoin:round" />
    <path
       d="m 425.98425,175.00787 0,0 C 425.98425,153.46441 443.44867,136 464.99212,136 l 0,0 c 10.34552,0 20.26734,4.10974 27.58274,11.42514 7.3154,7.3154 11.42514,17.23719 11.42514,27.58273 l 0,0 c 0,21.54346 -17.46442,39.00787 -39.00788,39.00787 l 0,0 c -21.54345,0 -39.00787,-17.46441 -39.00787,-39.00787 z"
       id="path3775"
       inkscape:connector-curvature="0"
       style="stroke:#000000;stroke-width:2;stroke-linecap:butt;stroke-linejoin:round;stroke-dasharray:8, 6" />
    <path
       d="m 545.98425,175.00787 0,0 C 545.98425,153.46441 563.44867,136 584.99212,136 l 0,0 c 10.34552,0 20.26734,4.10974 27.58271,11.42514 C 619.89026,154.74054 624,164.66233 624,175.00787 l 0,0 c 0,21.54346 -17.46442,39.00787 -39.00788,39.00787 l 0,0 c -21.54345,0 -39.00787,-17.46441 -39.00787,-39.00787 z"
       id="path3777"
       inkscape:connector-curvature="0"
       style="stroke:#000000;stroke-width:2;stroke-linecap:butt;stroke-linejoin:round;stroke-dasharray:8, 6" />
    <path
       d="M 515.4252,283.42514 472.04596,223.72368"
       id="path3779"
       inkscape:connector-curvature="0"
       style="stroke:#000000;stroke-width:2;stroke-linecap:butt;stroke-linejoin:round" />
    <path
       d="m 474.7184,221.78185 -8.00763,-5.40076 2.66266,9.28443 z"
       id="path3781"
       inkscape:connector-curvature="0"
       style="fill:#000000;fill-rule:evenodd;stroke:#000000;stroke-width:2;stroke-linecap:butt" />
    <path
       d="M 570.5906,283.42514 582.55422,225.7655"
       id="path3783"
       inkscape:connector-curvature="0"
       style="stroke:#000000;stroke-width:2;stroke-linecap:butt;stroke-linejoin:round" />
    <path
       d="m 585.78876,226.43663 -1.39062,-9.55804 -5.0785,8.21577 z"
       id="path3785"
       inkscape:connector-curvature="0"
       style="fill:#000000;fill-rule:evenodd;stroke:#000000;stroke-width:2;stroke-linecap:butt" />
    <path
       d="m 768,280.99213 0,0 c 0,-21.54346 17.46442,-39.00787 39.00787,-39.00787 l 0,0 c 10.34552,0 20.26734,4.10974 27.58271,11.42514 7.31543,7.31539 11.42517,17.23721 11.42517,27.58273 l 0,0 C 846.01575,302.53559 828.55133,320 807.00787,320 l 0,0 C 785.46442,320 768,302.53559 768,280.99213 z"
       id="path3787"
       inkscape:connector-curvature="0"
       style="stroke:#000000;stroke-width:2;stroke-linecap:butt;stroke-linejoin:round" />
    <path
       d="m 697.98425,120.99213 0,0 c 0,-21.543457 17.46442,-39.007874 39.00787,-39.007874 l 0,0 c 10.34552,0 20.26734,4.109749 27.58271,11.42514 C 771.89026,100.7248 776,110.64659 776,120.99213 l 0,0 C 776,142.53559 758.53558,160 736.99212,160 l 0,0 c -21.54345,0 -39.00787,-17.46441 -39.00787,-39.00787 z"
       id="path3789"
       inkscape:connector-curvature="0"
       style="stroke:#000000;stroke-width:2;stroke-linecap:butt;stroke-linejoin:round;stroke-dasharray:8, 6" />
    <path
       d="m 849.98425,120.99213 0,0 c 0,-21.543457 17.46442,-39.007874 39.00787,-39.007874 l 0,0 c 10.34552,0 20.26734,4.109749 27.58271,11.42514 C 923.89026,100.7248 928,110.64659 928,120.99213 l 0,0 C 928,142.53559 910.53558,160 888.99212,160 l 0,0 c -21.54345,0 -39.00787,-17.46441 -39.00787,-39.00787 z"
       id="path3791"
       inkscape:connector-curvature="0"
       style="stroke:#000000;stroke-width:2;stroke-linecap:butt;stroke-linejoin:round;stroke-dasharray:8, 6" />
    <path
       d="M 779.4251,253.4094 741.95531,170.92554"
       id="path3793"
       inkscape:connector-curvature="0"
       style="stroke:#000000;stroke-width:2;stroke-linecap:butt;stroke-linejoin:round" />
    <path
       d="m 744.96295,169.55923 -6.76154,-6.89722 0.74616,9.62981 z"
       id="path3795"
       inkscape:connector-curvature="0"
       style="fill:#000000;fill-rule:evenodd;stroke:#000000;stroke-width:2;stroke-linecap:butt" />
    <path
       d="m 834.59064,253.4094 48.3623,-83.03983"
       id="path3797"
       inkscape:connector-curvature="0"
       style="stroke:#000000;stroke-width:2;stroke-linecap:butt;stroke-linejoin:round" />
    <path
       d="m 885.80756,172.03209 1.71313,-9.50554 -7.42242,6.18048 z"
       id="path3799"
       inkscape:connector-curvature="0"
       style="fill:#000000;fill-rule:evenodd;stroke:#000000;stroke-width:2;stroke-linecap:butt" />
    <path
       d="m 240,496.99213 0,0 c 0,-21.54346 17.46442,-39.00787 39.00787,-39.00787 l 0,0 c 10.34552,0 20.26734,4.10974 27.58274,11.42514 7.3154,7.31539 11.42514,17.23721 11.42514,27.58273 l 0,0 C 318.01575,518.53559 300.55133,536 279.00787,536 l 0,0 C 257.46442,536 240,518.53559 240,496.99213 z"
       id="path3801"
       inkscape:connector-curvature="0"
       style="stroke:#000000;stroke-width:2;stroke-linecap:butt;stroke-linejoin:round" />
    <path
       d="m 169.98425,336.99213 0,0 c 0,-21.54346 17.46442,-39.00787 39.00787,-39.00787 l 0,0 c 10.34554,0 20.26734,4.10974 27.58274,11.42514 C 243.89026,316.72479 248,326.64661 248,336.99213 l 0,0 C 248,358.53559 230.53558,376 208.99212,376 l 0,0 c -21.54345,0 -39.00787,-17.46441 -39.00787,-39.00787 z"
       id="path3803"
       inkscape:connector-curvature="0"
       style="stroke:#000000;stroke-width:2;stroke-linecap:butt;stroke-linejoin:round;stroke-dasharray:8, 6" />
    <path
       d="m 297.98425,336.99213 0,0 c 0,-21.54346 17.46442,-39.00787 39.00787,-39.00787 l 0,0 c 10.34552,0 20.26734,4.10974 27.58274,11.42514 C 371.89026,316.72479 376,326.64661 376,336.99213 l 0,0 C 376,358.53559 358.53558,376 336.99212,376 l 0,0 c -21.54345,0 -39.00787,-17.46441 -39.00787,-39.00787 z"
       id="path3805"
       inkscape:connector-curvature="0"
       style="stroke:#000000;stroke-width:2;stroke-linecap:butt;stroke-linejoin:round;stroke-dasharray:8, 6" />
    <path
       d="M 251.42514,469.4094 213.95526,386.92554"
       id="path3807"
       inkscape:connector-curvature="0"
       style="stroke:#000000;stroke-width:2;stroke-linecap:butt;stroke-linejoin:round" />
    <path
       d="m 216.96294,385.55923 -6.76154,-6.89722 0.74619,9.62982 z"
       id="path3809"
       inkscape:connector-curvature="0"
       style="fill:#000000;fill-rule:evenodd;stroke:#000000;stroke-width:2;stroke-linecap:butt" />
    <path
       d="m 306.5906,469.4094 26.68768,-81.99854"
       id="path3811"
       inkscape:connector-curvature="0"
       style="stroke:#000000;stroke-width:2;stroke-linecap:butt;stroke-linejoin:round" />
    <path
       d="m 336.41956,388.43323 -0.33231,-9.65299 -5.95022,7.60822 z"
       id="path3813"
       inkscape:connector-curvature="0"
       style="fill:#000000;fill-rule:evenodd;stroke:#000000;stroke-width:2;stroke-linecap:butt" />
  </g>
</svg>
