<?xml version="1.0" encoding="UTF-8" standalone="no"?>
<svg
   xmlns:dc="http://purl.org/dc/elements/1.1/"
   xmlns:cc="http://creativecommons.org/ns#"
   xmlns:rdf="http://www.w3.org/1999/02/22-rdf-syntax-ns#"
   xmlns:svg="http://www.w3.org/2000/svg"
   xmlns="http://www.w3.org/2000/svg"
   xmlns:sodipodi="http://sodipodi.sourceforge.net/DTD/sodipodi-0.dtd"
   xmlns:inkscape="http://www.inkscape.org/namespaces/inkscape"
   version="1.1"
   viewBox="0 0 735.7536 686.86724"
   stroke-miterlimit="10"
   id="svg4211"
   inkscape:version="0.48.3.1 r9886"
   width="100%"
   height="100%"
   sodipodi:docname="ReSTfulObjectStorage.svg"
   style="fill:none;stroke:none">
  <metadata
     id="metadata4330">
    <rdf:RDF>
      <cc:Work
         rdf:about="">
        <dc:format>image/svg+xml</dc:format>
        <dc:type
           rdf:resource="http://purl.org/dc/dcmitype/StillImage" />
      </cc:Work>
    </rdf:RDF>
  </metadata>
  <defs
     id="defs4328" />
  <sodipodi:namedview
     pagecolor="#ffffff"
     bordercolor="#666666"
     borderopacity="1"
     objecttolerance="10"
     gridtolerance="10"
     guidetolerance="10"
     inkscape:pageopacity="0"
     inkscape:pageshadow="2"
     inkscape:window-width="640"
     inkscape:window-height="480"
     id="namedview4326"
     showgrid="false"
     fit-margin-top="0"
     fit-margin-left="0"
     fit-margin-right="0"
     fit-margin-bottom="0"
     inkscape:zoom="0.32777778"
     inkscape:cx="317.12415"
     inkscape:cy="360"
     inkscape:window-x="49"
     inkscape:window-y="24"
     inkscape:window-maximized="0"
     inkscape:current-layer="svg4211" />
  <clipPath
     id="p.0">
    <path
       d="M 0,0 960,0 960,720 0,720 0,0 z"
       clip-rule="nonzero"
       id="path4214"
       inkscape:connector-curvature="0" />
  </clipPath>
  <g
     clip-path="url(#p.0)"
     id="g4216"
     transform="translate(-162.87585,-33.132765)">
    <path
       d="m 163.87585,164.91919 0,0 c 0,-16.09888 13.05072,-29.14961 29.1496,-29.14961 l 0,0 c 7.73095,0 15.14528,3.07112 20.61189,8.53773 5.46661,5.4666 8.53772,12.88092 8.53772,20.61188 l 0,0 c 0,16.09888 -13.05072,29.14961 -29.14961,29.14961 l 0,0 c -16.09888,0 -29.1496,-13.05073 -29.1496,-29.14961 z"
       id="path4218"
       inkscape:connector-curvature="0"
       style="stroke:#000000;stroke-width:2;stroke-linecap:butt;stroke-linejoin:round" />
    <path
       d="m 223.66222,63.28237 0,0 c 0,-16.098885 13.05072,-29.149605 29.1496,-29.149605 l 0,0 c 7.73097,0 15.14528,3.07111 20.61189,8.53772 5.46661,5.466614 8.53772,12.880928 8.53772,20.611885 l 0,0 c 0,16.098885 -13.05072,29.149605 -29.14961,29.149605 l 0,0 c -16.09888,0 -29.1496,-13.05072 -29.1496,-29.149605 z"
       id="path4220"
       inkscape:connector-curvature="0"
       style="stroke:#000000;stroke-width:2;stroke-linecap:butt;stroke-linejoin:round;stroke-dasharray:8, 6" />
    <path
       d="m 313.34177,63.28237 0,0 c 0,-16.098885 13.05072,-29.149605 29.1496,-29.149605 l 0,0 c 7.73095,0 15.14526,3.07111 20.61187,8.53772 5.46662,5.466614 8.53772,12.880928 8.53772,20.611885 l 0,0 c 0,16.098885 -13.05072,29.149605 -29.14959,29.149605 l 0,0 c -16.09888,0 -29.1496,-13.05072 -29.1496,-29.149605 z"
       id="path4222"
       inkscape:connector-curvature="0"
       style="stroke:#000000;stroke-width:2;stroke-linecap:butt;stroke-linejoin:round;stroke-dasharray:8, 6" />
    <path
       d="M 213.63734,144.3073 245.5802,102.00817"
       id="path4224"
       inkscape:connector-curvature="0"
       style="stroke:#000000;stroke-width:2;stroke-linecap:butt;stroke-linejoin:round" />
    <path
       d="m 248.21642,103.99896 2.83342,-9.233742 -8.10585,5.252172 z"
       id="path4226"
       inkscape:connector-curvature="0"
       style="fill:#000000;fill-rule:evenodd;stroke:#000000;stroke-width:2;stroke-linecap:butt" />
    <path
       d="M 222.17505,164.91919 312.56677,91.46222"
       id="path4228"
       inkscape:connector-curvature="0"
       style="stroke:#000000;stroke-width:2;stroke-linecap:butt;stroke-linejoin:round" />
    <path
       d="m 314.65018,94.02589 4.96027,-8.287697 -9.12702,3.160347 z"
       id="path4230"
       inkscape:connector-curvature="0"
       style="fill:#000000;fill-rule:evenodd;stroke:#000000;stroke-width:2;stroke-linecap:butt" />
    <path
       d="m 479.26068,241.15857 0,0 c 0,-16.09888 13.05072,-29.14961 29.1496,-29.14961 l 0,0 c 7.73095,0 15.14526,3.07112 20.61187,8.53773 5.46662,5.4666 8.53772,12.88092 8.53772,20.61188 l 0,0 c 0,16.09888 -13.05072,29.1496 -29.14959,29.1496 l 0,0 c -16.09888,0 -29.1496,-13.05072 -29.1496,-29.1496 z"
       id="path4232"
       inkscape:connector-curvature="0"
       style="stroke:#000000;stroke-width:2;stroke-linecap:butt;stroke-linejoin:round" />
    <path
       d="m 420.9572,139.52176 0,0 c 0,-16.09889 13.05072,-29.14961 29.1496,-29.14961 l 0,0 c 7.73095,0 15.14529,3.07111 20.61187,8.53772 5.46662,5.46661 8.53775,12.88093 8.53775,20.61189 l 0,0 c 0,16.09888 -13.05075,29.1496 -29.14962,29.1496 l 0,0 c -16.09888,0 -29.1496,-13.05072 -29.1496,-29.1496 z"
       id="path4234"
       inkscape:connector-curvature="0"
       style="stroke:#000000;stroke-width:2;stroke-linecap:butt;stroke-linejoin:round;stroke-dasharray:8, 6" />
    <path
       d="m 510.63675,139.52176 0,0 c 0,-16.09889 13.05075,-29.14961 29.14963,-29.14961 l 0,0 c 7.73095,0 15.14526,3.07111 20.61188,8.53772 5.46661,5.46661 8.53772,12.88093 8.53772,20.61189 l 0,0 c 0,16.09888 -13.05072,29.1496 -29.1496,29.1496 l 0,0 c -16.09888,0 -29.14963,-13.05072 -29.14963,-29.1496 z"
       id="path4236"
       inkscape:connector-curvature="0"
       style="stroke:#000000;stroke-width:2;stroke-linecap:butt;stroke-linejoin:round;stroke-dasharray:8, 6" />
    <path
       d="m 487.7984,220.54669 -30.63794,-42.1673"
       id="path4238"
       inkscape:connector-curvature="0"
       style="stroke:#000000;stroke-width:2;stroke-linecap:butt;stroke-linejoin:round" />
    <path
       d="m 459.833,176.4376 -8.00754,-5.40088 2.66251,9.28445 z"
       id="path4240"
       inkscape:connector-curvature="0"
       style="fill:#000000;fill-rule:evenodd;stroke:#000000;stroke-width:2;stroke-linecap:butt" />
    <path
       d="m 529.0222,220.54669 8.32611,-40.12561"
       id="path4242"
       inkscape:connector-curvature="0"
       style="stroke:#000000;stroke-width:2;stroke-linecap:butt;stroke-linejoin:round" />
    <path
       d="m 540.5829,181.09225 -1.39056,-9.55808 -5.07862,8.21572 z"
       id="path4244"
       inkscape:connector-curvature="0"
       style="fill:#000000;fill-rule:evenodd;stroke:#000000;stroke-width:2;stroke-linecap:butt" />
    <path
       d="m 676.55566,218.72691 0,0 c 0,-16.09888 13.05072,-29.1496 29.1496,-29.1496 l 0,0 c 7.73095,0 15.14532,3.07111 20.61193,8.53772 5.46662,5.46662 8.53772,12.88092 8.53772,20.61188 l 0,0 c 0,16.09889 -13.05071,29.14961 -29.14965,29.14961 l 0,0 c -16.09888,0 -29.1496,-13.05072 -29.1496,-29.14961 z"
       id="path4246"
       inkscape:connector-curvature="0"
       style="stroke:#000000;stroke-width:2;stroke-linecap:butt;stroke-linejoin:round" />
    <path
       d="m 624.23083,99.15419 0,0 c 0,-16.098885 13.05072,-29.149605 29.1496,-29.149605 l 0,0 c 7.73095,0 15.14526,3.071106 20.61187,8.53772 5.46662,5.466614 8.53772,12.880928 8.53772,20.611885 l 0,0 c 0,16.09888 -13.05072,29.14961 -29.14959,29.14961 l 0,0 c -16.09888,0 -29.1496,-13.05073 -29.1496,-29.14961 z"
       id="path4248"
       inkscape:connector-curvature="0"
       style="stroke:#000000;stroke-width:2;stroke-linecap:butt;stroke-linejoin:round;stroke-dasharray:8, 6" />
    <path
       d="m 737.82495,99.15419 0,0 c 0,-16.098885 13.05072,-29.149605 29.1496,-29.149605 l 0,0 c 7.73095,0 15.14526,3.071106 20.61187,8.53772 5.46662,5.466614 8.53772,12.880928 8.53772,20.611885 l 0,0 c 0,16.09888 -13.05072,29.14961 -29.14959,29.14961 l 0,0 c -16.09888,0 -29.1496,-13.05073 -29.1496,-29.14961 z"
       id="path4250"
       inkscape:connector-curvature="0"
       style="stroke:#000000;stroke-width:2;stroke-linecap:butt;stroke-linejoin:round;stroke-dasharray:8, 6" />
    <path
       d="m 685.09344,198.11504 -26.74988,-58.8857"
       id="path4252"
       inkscape:connector-curvature="0"
       style="stroke:#000000;stroke-width:2;stroke-linecap:butt;stroke-linejoin:round" />
    <path
       d="m 661.35126,137.86305 -6.76154,-6.89725 0.74616,9.62982 z"
       id="path4254"
       inkscape:connector-curvature="0"
       style="fill:#000000;fill-rule:evenodd;stroke:#000000;stroke-width:2;stroke-linecap:butt" />
    <path
       d="m 726.3172,198.11504 34.61822,-59.44165"
       id="path4256"
       inkscape:connector-curvature="0"
       style="stroke:#000000;stroke-width:2;stroke-linecap:butt;stroke-linejoin:round" />
    <path
       d="m 763.79004,140.3359 1.71307,-9.50555 -7.4223,6.18052 z"
       id="path4258"
       inkscape:connector-curvature="0"
       style="fill:#000000;fill-rule:evenodd;stroke:#000000;stroke-width:2;stroke-linecap:butt" />
    <path
       d="m 281.9657,380.1501 0,0 c 0,-16.09888 13.05072,-29.1496 29.1496,-29.1496 l 0,0 c 7.73095,0 15.14526,3.07111 20.61187,8.53772 5.46662,5.46662 8.53772,12.88092 8.53772,20.61188 l 0,0 c 0,16.09891 -13.05072,29.14963 -29.14959,29.14963 l 0,0 c -16.09888,0 -29.1496,-13.05072 -29.1496,-29.14963 z"
       id="path4260"
       inkscape:connector-curvature="0"
       style="stroke:#000000;stroke-width:2;stroke-linecap:butt;stroke-linejoin:round" />
    <path
       d="m 229.64085,260.57736 0,0 c 0,-16.09888 13.05072,-29.1496 29.14961,-29.1496 l 0,0 c 7.73096,0 15.14527,3.07111 20.61188,8.53772 5.46661,5.46662 8.53772,12.88094 8.53772,20.61188 l 0,0 c 0,16.09888 -13.05072,29.14963 -29.1496,29.14963 l 0,0 c -16.09889,0 -29.14961,-13.05075 -29.14961,-29.14963 z"
       id="path4262"
       inkscape:connector-curvature="0"
       style="stroke:#000000;stroke-width:2;stroke-linecap:butt;stroke-linejoin:round;stroke-dasharray:8, 6" />
    <path
       d="m 325.29904,260.57736 0,0 c 0,-16.09888 13.05072,-29.1496 29.1496,-29.1496 l 0,0 c 7.73095,0 15.14526,3.07111 20.61187,8.53772 5.46662,5.46662 8.53772,12.88094 8.53772,20.61188 l 0,0 c 0,16.09888 -13.05072,29.14963 -29.14959,29.14963 l 0,0 c -16.09888,0 -29.1496,-13.05075 -29.1496,-29.14963 z"
       id="path4264"
       inkscape:connector-curvature="0"
       style="stroke:#000000;stroke-width:2;stroke-linecap:butt;stroke-linejoin:round;stroke-dasharray:8, 6" />
    <path
       d="M 290.50342,359.5382 263.75357,300.65252"
       id="path4266"
       inkscape:connector-curvature="0"
       style="stroke:#000000;stroke-width:2;stroke-linecap:butt;stroke-linejoin:round" />
    <path
       d="m 266.76126,299.28622 -6.76154,-6.89725 0.74616,9.62982 z"
       id="path4268"
       inkscape:connector-curvature="0"
       style="fill:#000000;fill-rule:evenodd;stroke:#000000;stroke-width:2;stroke-linecap:butt" />
    <path
       d="m 331.72717,359.5382 19.0076,-58.40042"
       id="path4270"
       inkscape:connector-curvature="0"
       style="stroke:#000000;stroke-width:2;stroke-linecap:butt;stroke-linejoin:round" />
    <path
       d="m 353.87604,302.1602 -0.33228,-9.65295 -5.95025,7.60818 z"
       id="path4272"
       inkscape:connector-curvature="0"
       style="fill:#000000;fill-rule:evenodd;stroke:#000000;stroke-width:2;stroke-linecap:butt" />
    <path
       d="m 587.2358,485.5092 66.14172,0 0,43.59055 -66.14172,0 z"
       id="path4274"
       inkscape:connector-curvature="0"
       style="stroke:#000000;stroke-width:2;stroke-linecap:butt;stroke-linejoin:round" />
    <path
       d="m 342.9838,648.59845 0,0 c 0,-39.43402 124.16165,-71.40161 277.32285,-71.40161 l 0,0 c 153.16113,0 277.3228,31.96759 277.3228,71.40161 l 0,0 C 897.62945,688.03241 773.46777,720 620.30665,720 l 0,0 C 467.14545,720 342.9838,688.03241 342.9838,648.59845 z"
       id="path4276"
       inkscape:connector-curvature="0"
       style="stroke:#000000;stroke-width:2;stroke-linecap:butt;stroke-linejoin:round" />
    <path
       d="m 420.9572,623.4829 0,0 c 0,-4.5661 3.70157,-8.2677 8.2677,-8.2677 l 0,0 c 2.19275,0 4.29568,0.87109 5.84616,2.42157 1.55051,1.55048 2.42157,3.65344 2.42157,5.84613 l 0,0 c 0,4.56616 -3.70157,8.26776 -8.26773,8.26776 l 0,0 c -4.56613,0 -8.2677,-3.7016 -8.2677,-8.26776 z"
       id="path4278"
       inkscape:connector-curvature="0"
       style="fill:#cfe2f3;fill-rule:nonzero" />
    <path
       d="m 420.9572,623.4829 0,0 c 0,-4.5661 3.70157,-8.2677 8.2677,-8.2677 l 0,0 c 2.19275,0 4.29568,0.87109 5.84616,2.42157 1.55051,1.55048 2.42157,3.65344 2.42157,5.84613 l 0,0 c 0,4.56616 -3.70157,8.26776 -8.26773,8.26776 l 0,0 c -4.56613,0 -8.2677,-3.7016 -8.2677,-8.26776 z"
       id="path4280"
       inkscape:connector-curvature="0"
       style="stroke:#000000;stroke-width:2;stroke-linecap:butt;stroke-linejoin:round" />
    <path
       d="m 568.936,656.0184 0,0 c 0,-4.56616 3.7016,-8.2677 8.2677,-8.2677 l 0,0 c 2.19275,0 4.29565,0.87103 5.84619,2.42157 1.55048,1.55048 2.42151,3.65338 2.42151,5.84613 l 0,0 c 0,4.56616 -3.70154,8.2677 -8.2677,8.2677 l 0,0 c -4.5661,0 -8.2677,-3.70154 -8.2677,-8.2677 z"
       id="path4282"
       inkscape:connector-curvature="0"
       style="fill:#cfe2f3;fill-rule:nonzero" />
    <path
       d="m 568.936,656.0184 0,0 c 0,-4.56616 3.7016,-8.2677 8.2677,-8.2677 l 0,0 c 2.19275,0 4.29565,0.87103 5.84619,2.42157 1.55048,1.55048 2.42151,3.65338 2.42151,5.84613 l 0,0 c 0,4.56616 -3.70154,8.2677 -8.2677,8.2677 l 0,0 c -4.5661,0 -8.2677,-3.70154 -8.2677,-8.2677 z"
       id="path4284"
       inkscape:connector-curvature="0"
       style="stroke:#000000;stroke-width:2;stroke-linecap:butt;stroke-linejoin:round" />
    <path
       d="m 500.14258,648.59845 0,0 c 0,-4.56616 3.70157,-8.26776 8.2677,-8.26776 l 0,0 c 2.19275,0 4.29565,0.87109 5.84619,2.42157 1.55048,1.55047 2.42151,3.65344 2.42151,5.84619 l 0,0 c 0,4.5661 -3.70154,8.2677 -8.2677,8.2677 l 0,0 c -4.56613,0 -8.2677,-3.7016 -8.2677,-8.2677 z"
       id="path4286"
       inkscape:connector-curvature="0"
       style="fill:#cfe2f3;fill-rule:nonzero" />
    <path
       d="m 500.14258,648.59845 0,0 c 0,-4.56616 3.70157,-8.26776 8.2677,-8.26776 l 0,0 c 2.19275,0 4.29565,0.87109 5.84619,2.42157 1.55048,1.55047 2.42151,3.65344 2.42151,5.84619 l 0,0 c 0,4.5661 -3.70154,8.2677 -8.2677,8.2677 l 0,0 c -4.56613,0 -8.2677,-3.7016 -8.2677,-8.2677 z"
       id="path4288"
       inkscape:connector-curvature="0"
       style="stroke:#000000;stroke-width:2;stroke-linecap:butt;stroke-linejoin:round" />
    <path
       d="m 624.23083,681.5696 0,0 c 0,-4.56616 3.7016,-8.26776 8.2677,-8.26776 l 0,0 c 2.19275,0 4.29572,0.87109 5.84619,2.42157 1.55048,1.55047 2.42157,3.65344 2.42157,5.84619 l 0,0 c 0,4.5661 -3.7016,8.2677 -8.26776,8.2677 l 0,0 c -4.5661,0 -8.2677,-3.7016 -8.2677,-8.2677 z"
       id="path4290"
       inkscape:connector-curvature="0"
       style="fill:#cfe2f3;fill-rule:nonzero" />
    <path
       d="m 624.23083,681.5696 0,0 c 0,-4.56616 3.7016,-8.26776 8.2677,-8.26776 l 0,0 c 2.19275,0 4.29572,0.87109 5.84619,2.42157 1.55048,1.55047 2.42157,3.65344 2.42157,5.84619 l 0,0 c 0,4.5661 -3.7016,8.2677 -8.26776,8.2677 l 0,0 c -4.5661,0 -8.2677,-3.7016 -8.2677,-8.2677 z"
       id="path4292"
       inkscape:connector-curvature="0"
       style="stroke:#000000;stroke-width:2;stroke-linecap:butt;stroke-linejoin:round" />
    <path
       d="m 796.12415,648.59845 0,0 c 0,-4.56616 3.7016,-8.26776 8.2677,-8.26776 l 0,0 c 2.19275,0 4.29565,0.87109 5.84619,2.42157 1.55048,1.55047 2.42157,3.65344 2.42157,5.84619 l 0,0 c 0,4.5661 -3.7016,8.2677 -8.26776,8.2677 l 0,0 c -4.5661,0 -8.2677,-3.7016 -8.2677,-8.2677 z"
       id="path4294"
       inkscape:connector-curvature="0"
       style="fill:#cfe2f3;fill-rule:nonzero" />
    <path
       d="m 796.12415,648.59845 0,0 c 0,-4.56616 3.7016,-8.26776 8.2677,-8.26776 l 0,0 c 2.19275,0 4.29565,0.87109 5.84619,2.42157 1.55048,1.55047 2.42157,3.65344 2.42157,5.84619 l 0,0 c 0,4.5661 -3.7016,8.2677 -8.26776,8.2677 l 0,0 c -4.5661,0 -8.2677,-3.7016 -8.2677,-8.2677 z"
       id="path4296"
       inkscape:connector-curvature="0"
       style="stroke:#000000;stroke-width:2;stroke-linecap:butt;stroke-linejoin:round" />
    <path
       d="M 432.36963,615.9974 609.41461,534.13595"
       id="path4298"
       inkscape:connector-curvature="0"
       style="stroke:#000000;stroke-width:2;stroke-linecap:butt;stroke-linejoin:round" />
    <path
       d="m 610.801,537.1344 6.85175,-6.80756 -9.62458,0.81067 z"
       id="path4300"
       inkscape:connector-curvature="0"
       style="fill:#000000;fill-rule:evenodd;stroke:#000000;stroke-width:2;stroke-linecap:butt" />
    <path
       d="M 510.16492,641.3517 611.90223,537.66518"
       id="path4302"
       inkscape:connector-curvature="0"
       style="stroke:#000000;stroke-width:2;stroke-linecap:butt;stroke-linejoin:round" />
    <path
       d="m 614.2602,539.97876 3.99872,-8.79205 -8.7146,4.16479 z"
       id="path4304"
       inkscape:connector-curvature="0"
       style="fill:#000000;fill-rule:evenodd;stroke:#000000;stroke-width:2;stroke-linecap:butt" />
    <path
       d="m 580.71606,645.85565 35.737,-105.39148"
       id="path4306"
       inkscape:connector-curvature="0"
       style="stroke:#000000;stroke-width:2;stroke-linecap:butt;stroke-linejoin:round" />
    <path
       d="m 619.5816,541.525 -0.21387,-9.65631 -6.04315,7.53461 z"
       id="path4308"
       inkscape:connector-curvature="0"
       style="fill:#000000;fill-rule:evenodd;stroke:#000000;stroke-width:2;stroke-linecap:butt" />
    <path
       d="m 629.56647,673.00525 -8.48926,-131.9303"
       id="path4310"
       inkscape:connector-curvature="0"
       style="stroke:#000000;stroke-width:2;stroke-linecap:butt;stroke-linejoin:round" />
    <path
       d="m 624.37384,540.86285 -3.87946,-8.84534 -2.7138,9.26959 z"
       id="path4312"
       inkscape:connector-curvature="0"
       style="fill:#000000;fill-rule:evenodd;stroke:#000000;stroke-width:2;stroke-linecap:butt" />
    <path
       d="M 796.1242,648.59845 630.23126,535.84528"
       id="path4314"
       inkscape:connector-curvature="0"
       style="stroke:#000000;stroke-width:2;stroke-linecap:butt;stroke-linejoin:round" />
    <path
       d="m 632.0882,533.1131 -9.3634,-2.36981 5.64947,7.8341 z"
       id="path4316"
       inkscape:connector-curvature="0"
       style="fill:#000000;fill-rule:evenodd;stroke:#000000;stroke-width:2;stroke-linecap:butt" />
    <path
       d="M 620.30664,485.5092 322.7666,412.17152"
       id="path4318"
       inkscape:connector-curvature="0"
       style="stroke:#000000;stroke-width:2;stroke-linecap:butt;stroke-linejoin:round" />
    <path
       d="m 323.55716,408.96405 -9.60303,1.03537 8.02188,5.37958 z"
       id="path4320"
       inkscape:connector-curvature="0"
       style="fill:#000000;fill-rule:evenodd;stroke:#000000;stroke-width:2;stroke-linecap:butt" />
    <path
       d="M 620.30664,485.5092 701.64691,259.16942"
       id="path4322"
       inkscape:connector-curvature="0"
       style="stroke:#000000;stroke-width:2;stroke-linecap:butt;stroke-linejoin:round" />
    <path
       d="m 704.75574,260.28665 -0.0392,-9.65862 -6.17834,7.42418 z"
       id="path4324"
       inkscape:connector-curvature="0"
       style="fill:#000000;fill-rule:evenodd;stroke:#000000;stroke-width:2;stroke-linecap:butt" />
  </g>
</svg>
